<svg width="75" height="75" viewBox="0 0 75 75" fill="none" xmlns="http://www.w3.org/2000/svg">
<g clip-path="url(#clip0_64_312)">
<rect width="75" height="75" rx="37.5" fill="#86888E" fill-opacity="0.15"/>
<path d="M38.3333 73.2083C40.1667 73.2083 40.4913 62.3368 41.7969 61.0312C43.1024 59.7257 52.5417 64.5833 52.5417 62.75C52.5417 60.9166 44.3472 55.5972 43.0417 54.2916C41.7361 52.9861 40.1667 44.7916 38.3333 44.7916C36.5 44.7916 34.9306 52.9861 33.625 54.2916C32.3195 55.5972 24.125 60.9166 24.125 62.75C24.125 64.5833 33.6163 59.7257 34.9219 61.0312C36.2274 62.3368 36.5 73.2083 38.3333 73.2083ZM38.3333 90.1666C45.1111 83.9444 50.1389 78.2916 53.4167 73.2083C56.6944 68.125 58.3333 63.6111 58.3333 59.6666C58.3333 53.6111 56.4028 48.6528 52.5417 44.7916C48.6806 40.9305 43.9445 39 38.3333 39C32.7222 39 27.9861 40.9305 24.125 44.7916C20.2639 48.6528 18.3334 53.6111 18.3334 59.6666C18.3334 63.6111 19.9722 68.125 23.25 73.2083C26.5278 78.2916 31.5556 83.9444 38.3333 90.1666ZM38.3333 99C29.3889 91.3888 22.7083 84.3194 18.2917 77.7916C13.875 71.2639 11.6667 65.2222 11.6667 59.6666C11.6667 51.3333 14.3472 44.6944 19.7084 39.75C25.0695 34.8055 31.2778 32.3333 38.3333 32.3333C45.3889 32.3333 51.5972 34.8055 56.9583 39.75C62.3194 44.6944 65 51.3333 65 59.6666C65 65.2222 62.7917 71.2639 58.375 77.7916C53.9583 84.3194 47.2778 91.3888 38.3333 99Z" fill="url(#paint0_linear_64_312)"/>
<mask id="mask0_64_312" style="mask-type:alpha" maskUnits="userSpaceOnUse" x="10" y="-6" width="54" height="54">
<rect x="10" y="-6" width="53.3333" height="53.3333" fill="url(#paint1_linear_64_312)"/>
</mask>
<g mask="url(#mask0_64_312)">
<path d="M32.5 33.5L30 34L27 35C26.1852 31.8519 24.8612 28.1389 22.5834 25.8611C20.3056 23.5833 17.5926 22.037 14.4445 21.2222C15.1852 21.037 15.9167 20.8981 16.6389 20.8055C17.3612 20.713 18.1112 20.6667 18.8889 20.6667C23.8519 20.6667 28.0556 22.3889 31.5 25.8333C34.9445 29.2778 36 27.537 36 32.5L32.5 33.5ZM42 33H40.5C40.1667 31.463 39.7963 30.7963 39.1667 29.3889C40.7223 26.7592 42.8426 24.6481 45.5278 23.0555C48.213 21.463 51.1852 20.6667 54.4445 20.6667C55.2223 20.6667 55.9723 20.713 56.6945 20.8055C57.4167 20.8981 58.1482 21.037 58.8889 21.2222C55.7408 22.037 53.0371 23.5833 50.7778 25.8611C48.5186 28.1389 46.963 30.8518 46.1111 34L45 33.5L44 33H43H42ZM36.6667 25.1667C36.6667 22.7592 37.1112 20.5 38 18.3889C38.8889 16.2778 40.1111 14.4167 41.6667 12.8055C43.2223 11.1944 45.0463 9.9074 47.1389 8.94444C49.2315 7.98148 51.463 7.46296 53.8334 7.38888C51.7593 8.68518 49.9445 10.2778 48.3889 12.1667C46.8334 14.0555 45.6297 16.1667 44.7778 18.5C43.1482 19.2778 41.6574 20.2315 40.3056 21.3611C38.9537 22.4907 37.7408 23.7592 36.6667 25.1667ZM32.6112 21C32.1667 20.6667 31.7223 20.3518 31.2778 20.0555C30.8334 19.7592 30.3704 19.463 29.8889 19.1667C29.8889 18.9444 29.9074 18.713 29.9445 18.4722C29.9815 18.2315 30 18 30 17.7778C30 14.963 29.5556 12.2963 28.6667 9.77777C27.7778 7.25925 26.5186 4.96296 24.8889 2.88889C27.3334 3.88889 29.4537 5.32407 31.25 7.19444C33.0463 9.06481 34.426 11.2222 35.3889 13.6667C34.7223 14.7778 34.1482 15.9537 33.6667 17.1944C33.1852 18.4352 32.8334 19.7037 32.6112 21Z" fill="url(#paint2_linear_64_312)"/>
</g>
</g>
<defs>
<linearGradient id="paint0_linear_64_312" x1="11.6667" y1="91.8571" x2="63.8531" y2="88.3332" gradientUnits="userSpaceOnUse">
<stop stop-color="#2093FE"/>
<stop offset="1" stop-color="#C217FE" stop-opacity="0.9"/>
</linearGradient>
<linearGradient id="paint1_linear_64_312" x1="10" y1="41.619" x2="62.0535" y2="37.2253" gradientUnits="userSpaceOnUse">
<stop stop-color="#2093FE"/>
<stop offset="1" stop-color="#C217FE" stop-opacity="0.9"/>
</linearGradient>
<linearGradient id="paint2_linear_64_312" x1="14.4445" y1="36.5232" x2="57.7025" y2="32.2153" gradientUnits="userSpaceOnUse">
<stop stop-color="#2093FE"/>
<stop offset="1" stop-color="#C217FE" stop-opacity="0.9"/>
</linearGradient>
<clipPath id="clip0_64_312">
<rect width="75" height="75" rx="37.5" fill="white"/>
</clipPath>
</defs>
</svg>
