<svg width="184" height="62" viewBox="0 0 184 62" fill="none" xmlns="http://www.w3.org/2000/svg">
<path d="M16.4848 46.0848C17.5515 46.0848 17.7404 39.7596 18.5 39C19.2596 38.2404 24.7515 41.0667 24.7515 40C24.7515 38.9333 19.9838 35.8384 19.2242 35.0788C18.4646 34.3192 17.5515 29.5515 16.4848 29.5515C15.4182 29.5515 14.505 34.3192 13.7455 35.0788C12.9859 35.8384 8.21818 38.9333 8.21818 40C8.21818 41.0667 13.7404 38.2404 14.5 39C15.2596 39.7596 15.4182 46.0848 16.4848 46.0848ZM16.4848 55.9515C20.4283 52.3313 23.3535 49.0424 25.2606 46.0848C27.1677 43.1273 28.1212 40.501 28.1212 38.2061C28.1212 34.6828 26.998 31.798 24.7515 29.5515C22.505 27.305 19.7495 26.1818 16.4848 26.1818C13.2202 26.1818 10.4646 27.305 8.21818 29.5515C5.97172 31.798 4.84848 34.6828 4.84848 38.2061C4.84848 40.501 5.80202 43.1273 7.70909 46.0848C9.61616 49.0424 12.5414 52.3313 16.4848 55.9515ZM16.4848 61.0909C11.2808 56.6626 7.39394 52.5495 4.82424 48.7515C2.25454 44.9535 0.969696 41.4384 0.969696 38.2061C0.969696 33.3576 2.52929 29.4949 5.64848 26.6182C8.76768 23.7414 12.3798 22.303 16.4848 22.303C20.5899 22.303 24.202 23.7414 27.3212 26.6182C30.4404 29.4949 32 33.3576 32 38.2061C32 41.4384 30.7152 44.9535 28.1455 48.7515C25.5758 52.5495 21.6889 56.6626 16.4848 61.0909Z" fill="#86888E"/>
<mask id="mask0_20_226" style="mask-type:alpha" maskUnits="userSpaceOnUse" x="0" y="0" width="32" height="32">
<rect width="31.0303" height="31.0303" fill="url(#paint0_linear_20_226)"/>
</mask>
<g mask="url(#mask0_20_226)">
<path d="M9.10143 27.089L8.74407 25.4831L10.0202 23.2727C9.54615 21.4411 8.64648 19.8626 7.32123 18.5374C5.99598 17.2121 4.41753 16.3125 2.58588 15.8384C3.01685 15.7306 3.44244 15.6498 3.86264 15.596C4.28285 15.5421 4.71921 15.5152 5.17174 15.5152C8.05928 15.5152 10.5051 16.5172 12.5091 18.5212C14.5132 20.5253 15.5152 22.9711 15.5152 25.8586L9.10143 27.089ZM18.101 25.8586C18.101 24.9535 18.0041 24.0539 17.8101 23.1596C17.6162 22.2653 17.336 21.4088 16.9697 20.5899C17.8748 19.0599 19.1084 17.8317 20.6707 16.9051C22.233 15.9785 23.9623 15.5152 25.8586 15.5152C26.3111 15.5152 26.7475 15.5421 27.1677 15.596C27.5879 15.6498 28.0135 15.7306 28.4445 15.8384C26.6128 16.3125 25.0398 17.2121 23.7253 18.5374C22.4108 19.8626 21.5057 21.4411 21.0101 23.2727L24.2364 24.7273V26.8698L18.101 25.8586ZM15.5152 18.1333C15.5152 16.7327 15.7738 15.4182 16.2909 14.1899C16.8081 12.9616 17.5192 11.8788 18.4243 10.9414C19.3293 10.004 20.3906 9.25522 21.6081 8.69496C22.8256 8.13469 24.1239 7.833 25.503 7.7899C24.2963 8.54411 23.2404 9.47071 22.3354 10.5697C21.4303 11.6687 20.73 12.897 20.2344 14.2546C19.2862 14.7071 18.4189 15.262 17.6323 15.9192C16.8458 16.5764 16.1401 17.3145 15.5152 18.1333ZM13.1556 15.7091C12.897 15.5152 12.6384 15.332 12.3798 15.1596C12.1212 14.9872 11.8519 14.8148 11.5717 14.6424C11.5717 14.5131 11.5825 14.3785 11.6041 14.2384C11.6256 14.0983 11.6364 13.9636 11.6364 13.8343C11.6364 12.1966 11.3778 10.6451 10.8606 9.1798C10.3435 7.71448 9.61079 6.37846 8.66265 5.17172C10.0849 5.75354 11.3185 6.58856 12.3637 7.67677C13.4088 8.76499 14.2115 10.0202 14.7717 11.4424C14.3839 12.0889 14.0499 12.7731 13.7697 13.495C13.4896 14.2168 13.2849 14.9549 13.1556 15.7091Z" fill="#86888E"/>
</g>
<path d="M60.896 24.5455V28.0975H60.08C58.608 28.0975 57.232 28.4815 55.952 29.2495C54.704 29.9855 53.696 31.1375 52.928 32.7055C52.16 34.2415 51.776 36.2255 51.776 38.6575V48.5455H48.08V24.9295H51.728V32.4655H51.104C51.456 30.5135 52.096 28.9615 53.024 27.8095C53.984 26.6575 55.088 25.8255 56.336 25.3135C57.584 24.8015 58.848 24.5455 60.128 24.5455H60.896ZM75.0294 49.3135C72.7574 49.3135 70.7254 48.7695 68.9334 47.6815C67.1414 46.5935 65.7334 45.1055 64.7094 43.2175C63.7174 41.3295 63.2214 39.1695 63.2214 36.7375C63.2214 34.3055 63.7174 32.1455 64.7094 30.2575C65.7334 28.3695 67.1414 26.8815 68.9334 25.7935C70.7254 24.7055 72.7574 24.1615 75.0294 24.1615C77.3334 24.1615 79.3814 24.7055 81.1734 25.7935C82.9654 26.8815 84.3574 28.3695 85.3494 30.2575C86.3734 32.1455 86.8854 34.3055 86.8854 36.7375C86.8854 39.1695 86.3734 41.3295 85.3494 43.2175C84.3574 45.1055 82.9654 46.5935 81.1734 47.6815C79.3814 48.7695 77.3334 49.3135 75.0294 49.3135ZM75.0294 46.0975C76.6294 46.0975 78.0214 45.6975 79.2054 44.8975C80.3894 44.0975 81.3174 42.9935 81.9894 41.5855C82.6614 40.1775 82.9974 38.5615 82.9974 36.7375C82.9974 34.8815 82.6614 33.2655 81.9894 31.8895C81.3174 30.4815 80.3894 29.3775 79.2054 28.5775C78.0214 27.7775 76.6294 27.3775 75.0294 27.3775C73.4614 27.3775 72.0854 27.7775 70.9014 28.5775C69.7174 29.3775 68.7894 30.4815 68.1174 31.8895C67.4454 33.2655 67.1094 34.8815 67.1094 36.7375C67.1094 38.5615 67.4454 40.1775 68.1174 41.5855C68.7894 42.9935 69.7174 44.0975 70.9014 44.8975C72.0854 45.6975 73.4614 46.0975 75.0294 46.0975ZM111.394 48.5455H107.89V43.9375L107.842 42.5935V33.8095C107.842 31.8255 107.234 30.2575 106.018 29.1055C104.834 27.9215 103.202 27.3295 101.122 27.3295C98.4015 27.3295 96.0975 28.4655 94.2095 30.7375L91.8095 28.3855C94.4975 25.5695 97.6815 24.1615 101.362 24.1615C103.378 24.1615 105.138 24.5615 106.642 25.3615C108.146 26.1295 109.314 27.2335 110.146 28.6735C110.978 30.0815 111.394 31.7455 111.394 33.6655V48.5455ZM99.5375 49.3135C97.8735 49.3135 96.4015 48.9935 95.1215 48.3535C93.8415 47.7135 92.8335 46.8335 92.0975 45.7135C91.3935 44.5615 91.0415 43.2655 91.0415 41.8255C91.0415 39.4255 91.9535 37.5215 93.7775 36.1135C95.6335 34.7055 98.1135 34.0015 101.218 34.0015H108.274V36.9775H101.65C99.5055 36.9775 97.8415 37.3935 96.6575 38.2255C95.4735 39.0255 94.8815 40.1775 94.8815 41.6815C94.8815 43.0575 95.3455 44.1615 96.2735 44.9935C97.2335 45.8255 98.4975 46.2415 100.066 46.2415C101.602 46.2415 102.978 45.9215 104.194 45.2815C105.41 44.6095 106.386 43.6975 107.122 42.5455C107.858 41.3615 108.274 40.0175 108.37 38.5135L109.762 39.3295C109.762 41.2495 109.314 42.9615 108.418 44.4655C107.554 45.9695 106.354 47.1535 104.818 48.0175C103.282 48.8815 101.522 49.3135 99.5375 49.3135ZM154.256 48.5455H150.56V34.9135C150.56 32.5455 150.096 30.7055 149.168 29.3935C148.24 28.0815 146.928 27.4255 145.232 27.4255C143.088 27.4255 141.392 28.3695 140.144 30.2575C138.896 32.1455 138.272 34.7055 138.272 37.9375V48.5455H134.576V34.9135C134.576 32.5455 134.112 30.7055 133.184 29.3935C132.256 28.0815 130.944 27.4255 129.248 27.4255C127.136 27.4255 125.456 28.3695 124.208 30.2575C122.96 32.1455 122.336 34.7055 122.336 37.9375V48.5455H118.64V24.9295H122.288V30.8815L121.952 30.8335C122.304 29.4255 122.848 28.2255 123.584 27.2335C124.352 26.2415 125.28 25.4895 126.368 24.9775C127.456 24.4335 128.672 24.1615 130.016 24.1615C132.096 24.1615 133.776 24.7855 135.056 26.0335C136.368 27.2815 137.232 29.0575 137.648 31.3615H137.072C137.424 29.8255 138 28.5295 138.8 27.4735C139.6 26.3855 140.592 25.5695 141.776 25.0255C142.96 24.4495 144.288 24.1615 145.76 24.1615C148.48 24.1615 150.576 25.0575 152.048 26.8495C153.52 28.6415 154.256 31.2015 154.256 34.5295V48.5455ZM179.855 48.5455H176.351V43.9375L176.303 42.5935V33.8095C176.303 31.8255 175.695 30.2575 174.479 29.1055C173.295 27.9215 171.663 27.3295 169.583 27.3295C166.863 27.3295 164.559 28.4655 162.671 30.7375L160.271 28.3855C162.959 25.5695 166.143 24.1615 169.823 24.1615C171.839 24.1615 173.599 24.5615 175.103 25.3615C176.607 26.1295 177.775 27.2335 178.607 28.6735C179.439 30.0815 179.855 31.7455 179.855 33.6655V48.5455ZM167.999 49.3135C166.335 49.3135 164.863 48.9935 163.583 48.3535C162.303 47.7135 161.295 46.8335 160.559 45.7135C159.855 44.5615 159.503 43.2655 159.503 41.8255C159.503 39.4255 160.415 37.5215 162.239 36.1135C164.095 34.7055 166.575 34.0015 169.679 34.0015H176.735V36.9775H170.111C167.967 36.9775 166.303 37.3935 165.119 38.2255C163.935 39.0255 163.343 40.1775 163.343 41.6815C163.343 43.0575 163.807 44.1615 164.735 44.9935C165.695 45.8255 166.959 46.2415 168.527 46.2415C170.063 46.2415 171.439 45.9215 172.655 45.2815C173.871 44.6095 174.847 43.6975 175.583 42.5455C176.319 41.3615 176.735 40.0175 176.831 38.5135L178.223 39.3295C178.223 41.2495 177.775 42.9615 176.879 44.4655C176.015 45.9695 174.815 47.1535 173.279 48.0175C171.743 48.8815 169.983 49.3135 167.999 49.3135Z" fill="#86888E"/>
<defs>
<linearGradient id="paint0_linear_20_226" x1="-8.96557e-08" y1="27.7056" x2="30.2857" y2="25.1493" gradientUnits="userSpaceOnUse">
<stop stop-color="#2093FE"/>
<stop offset="1" stop-color="#C217FE" stop-opacity="0.9"/>
</linearGradient>
</defs>
</svg>
