<svg width="215" height="30" viewBox="0 0 215 30" fill="none" xmlns="http://www.w3.org/2000/svg">
<path d="M3.6682 14.15L16.4482 19.19V22.34L3.6682 17.06V14.15ZM3.6682 13.37L16.4482 8.12V11.18L3.6682 16.19V13.37ZM32.5529 21.41L34.7129 23.51C33.9729 24.43 33.0629 25.16 31.9829 25.7C30.9029 26.22 29.6629 26.48 28.2629 26.48C26.7229 26.48 25.3429 26.14 24.1229 25.46C22.9229 24.76 21.9729 23.82 21.2729 22.64C20.5729 21.44 20.2229 20.06 20.2229 18.5C20.2229 16.96 20.5729 15.6 21.2729 14.42C21.9729 13.22 22.9329 12.28 24.1529 11.6C25.3929 10.9 26.7929 10.55 28.3529 10.55C29.7129 10.55 30.9229 10.81 31.9829 11.33C33.0629 11.85 33.9729 12.58 34.7129 13.52L32.5529 15.62C32.1129 14.94 31.5529 14.4 30.8729 14C30.2129 13.58 29.4129 13.37 28.4729 13.37C27.5529 13.37 26.7329 13.59 26.0129 14.03C25.2929 14.47 24.7329 15.08 24.3329 15.86C23.9329 16.62 23.7329 17.5 23.7329 18.5C23.7329 19.5 23.9329 20.39 24.3329 21.17C24.7329 21.95 25.2929 22.56 26.0129 23C26.7329 23.44 27.5529 23.66 28.4729 23.66C29.4129 23.66 30.2129 23.45 30.8729 23.03C31.5529 22.61 32.1129 22.07 32.5529 21.41ZM43.5548 26.48C41.9748 26.48 40.5648 26.14 39.3248 25.46C38.1048 24.78 37.1448 23.84 36.4448 22.64C35.7448 21.44 35.3948 20.06 35.3948 18.5C35.3948 16.96 35.7448 15.59 36.4448 14.39C37.1448 13.19 38.1048 12.25 39.3248 11.57C40.5648 10.89 41.9748 10.55 43.5548 10.55C45.1548 10.55 46.5648 10.89 47.7848 11.57C49.0248 12.25 49.9848 13.19 50.6648 14.39C51.3648 15.59 51.7148 16.96 51.7148 18.5C51.7148 20.06 51.3648 21.44 50.6648 22.64C49.9848 23.84 49.0248 24.78 47.7848 25.46C46.5648 26.14 45.1548 26.48 43.5548 26.48ZM43.5548 23.66C44.4948 23.66 45.3148 23.44 46.0148 23C46.7148 22.56 47.2548 21.96 47.6348 21.2C48.0348 20.42 48.2348 19.52 48.2348 18.5C48.2348 17.5 48.0348 16.62 47.6348 15.86C47.2548 15.08 46.7148 14.47 46.0148 14.03C45.3148 13.59 44.4948 13.37 43.5548 13.37C42.6348 13.37 41.8248 13.59 41.1248 14.03C40.4248 14.47 39.8748 15.08 39.4748 15.86C39.0948 16.62 38.9048 17.5 38.9048 18.5C38.9048 19.52 39.0948 20.42 39.4748 21.2C39.8748 21.96 40.4248 22.56 41.1248 23C41.8248 23.44 42.6348 23.66 43.5548 23.66ZM69.4627 26H66.1327V22.28L66.1027 22.13V18.74C66.1027 17.66 65.9027 16.72 65.5027 15.92C65.1027 15.12 64.5427 14.5 63.8227 14.06C63.1227 13.6 62.3127 13.37 61.3927 13.37C60.4727 13.37 59.6527 13.59 58.9327 14.03C58.2327 14.47 57.6927 15.08 57.3127 15.86C56.9327 16.64 56.7427 17.52 56.7427 18.5C56.7427 19.5 56.9427 20.39 57.3427 21.17C57.7427 21.95 58.3027 22.56 59.0227 23C59.7427 23.44 60.5827 23.66 61.5427 23.66C62.3827 23.66 63.1427 23.49 63.8227 23.15C64.5227 22.81 65.0927 22.34 65.5327 21.74C65.9727 21.14 66.2427 20.45 66.3427 19.67L67.0327 20.21C67.1327 21.39 66.9327 22.46 66.4327 23.42C65.9327 24.36 65.2027 25.11 64.2427 25.67C63.2827 26.21 62.1427 26.48 60.8227 26.48C59.4027 26.48 58.1127 26.14 56.9527 25.46C55.8127 24.78 54.9027 23.84 54.2227 22.64C53.5627 21.44 53.2327 20.06 53.2327 18.5C53.2327 16.96 53.5627 15.59 54.2227 14.39C54.9027 13.19 55.8127 12.25 56.9527 11.57C58.0927 10.89 59.3627 10.55 60.7627 10.55C61.8827 10.55 62.8727 10.77 63.7327 11.21C64.6127 11.63 65.3227 12.22 65.8627 12.98C66.4227 13.74 66.7727 14.63 66.9127 15.65H66.1027V4.4H69.4627V26ZM85.0086 21.47L86.9286 23.57C86.1486 24.47 85.1786 25.18 84.0186 25.7C82.8586 26.22 81.5686 26.48 80.1486 26.48C78.4686 26.48 76.9786 26.14 75.6786 25.46C74.3986 24.78 73.3886 23.84 72.6486 22.64C71.9286 21.44 71.5686 20.07 71.5686 18.53C71.5686 16.97 71.9186 15.59 72.6186 14.39C73.3186 13.19 74.2786 12.25 75.4986 11.57C76.7186 10.89 78.0886 10.55 79.6086 10.55C81.0886 10.55 82.3986 10.89 83.5386 11.57C84.6786 12.23 85.5786 13.15 86.2386 14.33C86.8986 15.49 87.2286 16.84 87.2286 18.38V18.56H83.8986V18.23C83.8986 17.23 83.7086 16.36 83.3286 15.62C82.9686 14.86 82.4686 14.28 81.8286 13.88C81.1886 13.46 80.4386 13.25 79.5786 13.25C78.6786 13.25 77.8786 13.47 77.1786 13.91C76.4986 14.33 75.9686 14.93 75.5886 15.71C75.2086 16.47 75.0186 17.39 75.0186 18.47C75.0186 19.55 75.2386 20.49 75.6786 21.29C76.1386 22.09 76.7586 22.71 77.5386 23.15C78.3386 23.57 79.2586 23.78 80.2986 23.78C82.1986 23.78 83.7686 23.01 85.0086 21.47ZM87.2286 19.58H73.9086V17.3H86.7486L87.2286 18.41V19.58ZM98.2713 10.76V13.88H97.5513C96.6313 13.88 95.8113 14.08 95.0913 14.48C94.3713 14.88 93.8013 15.5 93.3813 16.34C92.9613 17.18 92.7513 18.28 92.7513 19.64V26H89.3913V11.03H92.7213V15.86H92.2713C92.4713 14.56 92.8613 13.54 93.4413 12.8C94.0213 12.06 94.7013 11.54 95.4813 11.24C96.2613 10.92 97.0413 10.76 97.8213 10.76H98.2713ZM112.218 21.47L114.138 23.57C113.358 24.47 112.388 25.18 111.228 25.7C110.068 26.22 108.778 26.48 107.358 26.48C105.678 26.48 104.188 26.14 102.888 25.46C101.608 24.78 100.598 23.84 99.8576 22.64C99.1376 21.44 98.7776 20.07 98.7776 18.53C98.7776 16.97 99.1276 15.59 99.8276 14.39C100.528 13.19 101.488 12.25 102.708 11.57C103.928 10.89 105.298 10.55 106.818 10.55C108.298 10.55 109.608 10.89 110.748 11.57C111.888 12.23 112.788 13.15 113.448 14.33C114.108 15.49 114.438 16.84 114.438 18.38V18.56H111.108V18.23C111.108 17.23 110.918 16.36 110.538 15.62C110.178 14.86 109.678 14.28 109.038 13.88C108.398 13.46 107.648 13.25 106.788 13.25C105.888 13.25 105.088 13.47 104.388 13.91C103.708 14.33 103.178 14.93 102.798 15.71C102.418 16.47 102.228 17.39 102.228 18.47C102.228 19.55 102.448 20.49 102.888 21.29C103.348 22.09 103.968 22.71 104.748 23.15C105.548 23.57 106.468 23.78 107.508 23.78C109.408 23.78 110.978 23.01 112.218 21.47ZM114.438 19.58H101.118V17.3H113.958L114.438 18.41V19.58ZM124.15 26H120.88L114.46 11.03H117.97L123.01 23.81H122.08L127.15 11.03H130.54L124.15 26ZM135.308 26H131.948V11.03H135.308V26ZM133.628 7.94C133.048 7.94 132.548 7.74 132.128 7.34C131.708 6.94 131.498 6.46 131.498 5.9C131.498 5.3 131.708 4.8 132.128 4.4C132.548 4 133.048 3.8 133.628 3.8C134.228 3.8 134.728 4 135.128 4.4C135.548 4.8 135.758 5.29 135.758 5.87C135.758 6.45 135.548 6.94 135.128 7.34C134.728 7.74 134.228 7.94 133.628 7.94ZM150.907 21.47L152.827 23.57C152.047 24.47 151.077 25.18 149.917 25.7C148.757 26.22 147.467 26.48 146.047 26.48C144.367 26.48 142.877 26.14 141.577 25.46C140.297 24.78 139.287 23.84 138.547 22.64C137.827 21.44 137.467 20.07 137.467 18.53C137.467 16.97 137.817 15.59 138.517 14.39C139.217 13.19 140.177 12.25 141.397 11.57C142.617 10.89 143.987 10.55 145.507 10.55C146.987 10.55 148.297 10.89 149.437 11.57C150.577 12.23 151.477 13.15 152.137 14.33C152.797 15.49 153.127 16.84 153.127 18.38V18.56H149.797V18.23C149.797 17.23 149.607 16.36 149.227 15.62C148.867 14.86 148.367 14.28 147.727 13.88C147.087 13.46 146.337 13.25 145.477 13.25C144.577 13.25 143.777 13.47 143.077 13.91C142.397 14.33 141.867 14.93 141.487 15.71C141.107 16.47 140.917 17.39 140.917 18.47C140.917 19.55 141.137 20.49 141.577 21.29C142.037 22.09 142.657 22.71 143.437 23.15C144.237 23.57 145.157 23.78 146.197 23.78C148.097 23.78 149.667 23.01 150.907 21.47ZM153.127 19.58H139.807V17.3H152.647L153.127 18.41V19.58ZM172.155 26H168.675L164.865 14H165.735L161.925 26H158.445L153.735 11.03H157.095L160.785 24.08H159.825L163.875 11.03H166.845L170.895 24.08H169.935L173.595 11.03H176.865L172.155 26ZM185.964 26H182.784L191.484 4.07H194.664L185.964 26ZM198.705 11.27V8.12L211.485 13.4V16.28L198.705 11.27ZM198.705 22.34V19.28L211.485 14.27V17.06L198.705 22.34Z" fill="#86888E"/>
</svg>
