<svg width="249" height="280" viewBox="0 0 249 280" fill="none" xmlns="http://www.w3.org/2000/svg">
<g clip-path="url(#clip0_60_32)">
<mask id="mask0_60_32" style="mask-type:luminance" maskUnits="userSpaceOnUse" x="0" y="0" width="249" height="280">
<path d="M249 0H0V280H249V0Z" fill="white"/>
</mask>
<g mask="url(#mask0_60_32)">
<path d="M206.43 65.5L249.731 90.5L233.882 124.651L174.731 133.801L131.43 108.801L147.279 74.6509L206.43 65.5ZM132.796 108.59L175.097 133.012L232.881 124.073L248.365 90.7109L206.064 66.2886L148.279 75.228L132.796 108.59Z" fill="#D9D9D9"/>
<path d="M178.717 6.5L222.019 31.5L206.169 65.6509L147.019 74.8013L103.717 49.8013L119.566 15.6509L178.717 6.5ZM105.083 49.5898L147.384 74.0122L205.168 65.0732L220.652 31.7109L178.351 7.28857L120.566 16.228L105.083 49.5898Z" fill="#D9D9D9"/>
<path d="M104.239 49.5L147.54 74.5L131.691 108.651L72.5404 117.801L29.2391 92.8013L45.088 58.6509L104.239 49.5ZM30.6049 92.5898L72.9057 117.012L130.69 108.073L146.174 74.7109L103.873 50.2886L46.0877 59.228L30.6049 92.5898Z" fill="#D9D9D9"/>
<path d="M131.952 108.5L175.253 133.5L159.403 167.651L100.253 176.801L56.9519 151.801L72.8008 117.651L131.952 108.5ZM58.3177 151.59L100.619 176.012L158.403 167.073L173.886 133.711L131.586 109.289L73.8005 118.228L58.3177 151.59Z" fill="#D9D9D9"/>
<path d="M234.143 124.5L277.444 149.5L261.594 183.651L202.444 192.801L159.143 167.801L174.992 133.651L234.143 124.5ZM160.509 167.59L202.81 192.012L260.594 183.073L276.077 149.711L233.777 125.289L175.991 134.228L160.509 167.59Z" fill="#D9D9D9"/>
<path d="M308.621 81.5L351.922 106.5L336.073 140.651L276.922 149.801L233.621 124.801L249.47 90.6509L308.621 81.5ZM234.987 124.59L277.288 149.012L335.072 140.073L350.556 106.711L308.255 82.2886L250.47 91.228L234.987 124.59Z" fill="#D9D9D9"/>
<path d="M280.908 22.5L324.21 47.5L308.36 81.6509L249.21 90.8013L205.908 65.8013L221.757 31.6509L280.908 22.5ZM207.274 65.5898L249.575 90.0122L307.359 81.0732L322.843 47.7109L280.542 23.2886L222.757 32.228L207.274 65.5898Z" fill="#D9D9D9"/>
<path d="M159 167L202.301 192L186.451 226.151L127.301 235.301L84 210.301L99.8489 176.151L159 167ZM85.3658 210.09L127.667 234.512L185.451 225.573L200.935 192.211L158.634 167.789L100.849 176.728L85.3658 210.09Z" fill="#D9D9D9"/>
<path d="M30 93L73.3013 118L57.4515 152.151L-1.69873 161.301L-45 136.301L-29.1511 102.151L30 93ZM-43.6341 136.09L-1.33337 160.512L56.451 151.573L71.9346 118.211L29.6338 93.7886L-28.1514 102.728L-43.6341 136.09Z" fill="#D9D9D9"/>
<path d="M57 151L100.301 176L84.4515 210.151L25.3013 219.301L-18 194.301L-2.15105 160.151L57 151ZM-16.6341 194.09L25.6666 218.512L83.451 209.573L98.9346 176.211L56.6338 151.789L-1.15141 160.728L-16.6341 194.09Z" fill="#D9D9D9"/>
<path d="M261 183L304.301 208L288.451 242.151L229.301 251.301L186 226.301L201.849 192.151L261 183ZM187.366 226.09L229.667 250.512L287.451 241.573L302.935 208.211L260.634 183.789L202.849 192.728L187.366 226.09Z" fill="#D9D9D9"/>
<path d="M336 140L379.301 165L363.451 199.151L304.301 208.301L261 183.301L276.849 149.151L336 140ZM262.366 183.09L304.667 207.512L362.451 198.573L377.935 165.211L335.634 140.789L277.849 149.728L262.366 183.09Z" fill="#D9D9D9"/>
<path d="M410 97L453.301 122L437.451 156.151L378.301 165.301L335 140.301L350.849 106.151L410 97ZM336.366 140.09L378.667 164.512L436.451 155.573L451.935 122.211L409.634 97.7886L351.849 106.728L336.366 140.09Z" fill="#D9D9D9"/>
<path d="M382 38L425.301 63L409.451 97.1509L350.301 106.301L307 81.3013L322.849 47.1509L382 38ZM308.366 81.0898L350.667 105.512L408.451 96.5732L423.935 63.2109L381.634 38.7886L323.849 47.728L308.366 81.0898Z" fill="#D9D9D9"/>
<path d="M355 -20L398.301 4.99999L382.452 39.1509L323.301 48.3013L280 23.3013L295.849 -10.8491L355 -20ZM281.366 23.0898L323.667 47.5122L381.451 38.5732L396.935 5.21093L354.634 -19.2114L296.849 -10.272L281.366 23.0898Z" fill="#D9D9D9"/>
<path d="M152 -52L195.301 -27L179.451 7.15088L120.301 16.3013L77 -8.69873L92.8489 -42.8491L152 -52ZM78.3658 -8.91016L120.667 15.5122L178.451 6.57324L193.935 -26.7891L151.634 -51.2114L93.8486 -42.272L78.3658 -8.91016Z" fill="#D9D9D9"/>
<path d="M77 -9L120.301 16L104.451 50.1509L45.3013 59.3013L2 34.3013L17.8489 0.150879L77 -9ZM3.36584 34.0898L45.6666 58.5122L103.451 49.5732L118.935 16.2109L76.6338 -8.21143L18.8486 0.728027L3.36584 34.0898Z" fill="#D9D9D9"/>
<path d="M3 34L46.3013 59L30.4515 93.1509L-28.6987 102.301L-72 77.3013L-56.1511 43.1509L3 34ZM-70.6341 77.0898L-28.3334 101.512L29.451 92.5732L44.9346 59.2109L2.6338 34.7886L-55.1514 43.728L-70.6341 77.0898Z" fill="#D9D9D9"/>
<path d="M254 -36L297.301 -11L281.451 23.1509L222.301 32.3013L179 7.30127L194.849 -26.8491L254 -36ZM180.366 7.08984L222.667 31.5122L280.451 22.5732L295.935 -10.7891L253.634 -35.2114L195.849 -26.272L180.366 7.08984Z" fill="#D9D9D9"/>
<path d="M84.1983 209.651L127.5 234.651L111.65 268.802L52.4996 277.952L9.19831 252.952L25.0473 218.802L84.1983 209.651ZM10.5642 252.741L52.8649 277.163L110.649 268.224L126.133 234.862L83.8321 210.439L26.0469 219.379L10.5642 252.741Z" fill="#D9D9D9"/>
<path d="M186.198 225.651L229.5 250.651L213.65 284.802L154.5 293.952L111.198 268.952L127.047 234.802L186.198 225.651ZM112.564 268.741L154.865 293.163L212.649 284.224L228.133 250.862L185.832 226.439L128.047 235.379L112.564 268.741Z" fill="#D9D9D9"/>
<path d="M287.198 241.651L330.5 266.651L314.65 300.802L255.5 309.952L212.198 284.952L228.047 250.802L287.198 241.651ZM213.564 284.741L255.865 309.163L313.649 300.224L329.133 266.862L286.832 242.439L229.047 251.379L213.564 284.741Z" fill="#D9D9D9"/>
<mask id="mask1_60_32" style="mask-type:alpha" maskUnits="userSpaceOnUse" x="142" y="28" width="42" height="24">
<path d="M163.413 28.0163L142.029 38.912L162.157 51.9834L183.541 41.0876L163.413 28.0163Z" fill="#D9D9D9"/>
</mask>
<g mask="url(#mask1_60_32)">
<path d="M170.752 45.1739C169.592 45.7653 168.287 46.1873 166.839 46.44C165.39 46.6928 163.922 46.7802 162.434 46.7022C160.946 46.6243 159.495 46.3839 158.08 45.981C156.666 45.5782 155.412 45.0222 154.32 44.3127C153.219 43.5977 152.409 42.8135 151.889 41.9602C151.369 41.1068 151.131 40.2505 151.176 39.3914C151.221 38.5323 151.549 37.7044 152.161 36.9079C152.771 36.1111 153.657 35.4171 154.817 34.8257C155.987 34.2297 157.294 33.8065 158.738 33.5561C160.182 33.3056 161.649 33.2195 163.137 33.2976C164.624 33.3754 166.073 33.6144 167.483 34.0144C168.893 34.4144 170.149 34.9719 171.25 35.6869C172.342 36.3964 173.15 37.1791 173.675 38.0354C174.199 38.8915 174.438 39.7491 174.393 40.6082C174.348 41.4673 174.023 42.294 173.416 43.0884C172.81 43.8827 171.922 44.5779 170.752 45.1739ZM169.476 44.3454C169.363 43.745 169.174 43.1783 168.907 42.645C168.64 42.1116 168.262 41.573 167.772 41.0286L163.958 42.9721C164.871 43.3254 165.769 43.6119 166.652 43.8315C167.534 44.0511 168.476 44.2225 169.476 44.3454ZM167.52 45.0747C166.718 44.9492 165.886 44.765 165.027 44.522C164.167 44.2789 163.354 43.9954 162.586 43.6713L159.563 45.2114C160.905 45.5372 162.268 45.6909 163.652 45.6723C165.035 45.6536 166.326 45.4544 167.52 45.0747ZM170.971 43.3164C171.77 42.6799 172.27 41.9677 172.469 41.1795C172.668 40.3913 172.568 39.5946 172.167 38.7892L169.145 40.3292C169.588 40.825 169.967 41.3329 170.284 41.8531C170.599 42.3731 170.829 42.8609 170.971 43.3164ZM157.744 44.6799L161.057 42.9923C160.69 42.8184 160.343 42.6405 160.019 42.4589C159.694 42.2773 159.379 42.0877 159.075 41.8901C158.771 41.6924 158.481 41.4899 158.207 41.2828C157.933 41.0754 157.668 40.8562 157.412 40.6253L154.1 42.313C154.299 42.5416 154.53 42.7674 154.792 42.9904C155.053 43.2134 155.342 43.4272 155.656 43.6317C155.972 43.8363 156.306 44.0269 156.659 44.2033C157.012 44.3797 157.374 44.5387 157.744 44.6799ZM162.394 42.3114L166.821 40.0552C166.566 39.8245 166.303 39.607 166.034 39.4032C165.765 39.1994 165.474 38.9953 165.158 38.7907C164.843 38.586 164.526 38.3946 164.207 38.2164C163.887 38.0383 163.544 37.8622 163.177 37.6883L158.749 39.9444C159.004 40.1752 159.267 40.3927 159.536 40.5965C159.804 40.8002 160.097 41.0044 160.412 41.2091C160.726 41.4136 161.044 41.605 161.363 41.7833C161.682 41.9613 162.025 42.1374 162.394 42.3114ZM168.157 39.3744L171.47 37.6867C171.271 37.4581 171.04 37.2323 170.778 37.0093C170.516 36.7863 170.228 36.5725 169.913 36.3679C169.597 36.1633 169.264 35.9728 168.911 35.7965C168.557 35.6199 168.195 35.461 167.825 35.3197L164.512 37.0074C164.881 37.1814 165.227 37.3591 165.552 37.5408C165.876 37.7224 166.19 37.912 166.494 38.1097C166.799 38.3073 167.088 38.5097 167.363 38.717C167.637 38.9243 167.902 39.1435 168.157 39.3744ZM162.984 36.3283L166.006 34.7883C164.649 34.4584 163.29 34.3026 161.931 34.3209C160.571 34.3392 159.275 34.5389 158.042 34.9196C158.871 35.0625 159.708 35.2544 160.554 35.4953C161.401 35.736 162.21 36.0137 162.984 36.3283ZM157.797 38.9712L161.611 37.0276C160.703 36.6776 159.797 36.3907 158.894 36.1668C157.989 35.9429 157.056 35.7721 156.094 35.6543C156.18 36.2179 156.362 36.7714 156.639 37.3149C156.917 37.8583 157.303 38.4105 157.797 38.9712ZM153.402 41.2104L156.425 39.6704C155.975 39.1904 155.594 38.6945 155.28 38.1825C154.966 37.6705 154.737 37.169 154.59 36.6779C153.778 37.3396 153.278 38.0575 153.087 38.8316C152.897 39.6057 153.002 40.3987 153.402 41.2104Z" fill="#D4D5D7"/>
</g>
<mask id="mask2_60_32" style="mask-type:alpha" maskUnits="userSpaceOnUse" x="123" y="188" width="42" height="25">
<path d="M143.785 189L123 201L143.785 213L164.569 201L143.785 189Z" fill="#D9D9D9"/>
</mask>
<g mask="url(#mask2_60_32)">
<path d="M153.711 203.731L146.696 205.681L144.411 208.665C144.254 208.87 143.989 208.99 143.616 209.026C143.243 209.062 142.922 209.002 142.652 208.846L131.294 202.288C131.123 202.19 131.015 202.075 130.971 201.943C130.926 201.812 130.956 201.681 131.061 201.55L133.859 198.269L140.873 196.319L143.158 193.335C143.315 193.13 143.576 193.008 143.94 192.967C144.305 192.926 144.62 192.982 144.884 193.135L156.309 199.731C156.485 199.833 156.59 199.951 156.623 200.085C156.657 200.22 156.618 200.354 156.508 200.488L153.711 203.731ZM151.472 203.188L141.34 197.338L136.08 198.802L146.213 204.652L151.472 203.188ZM152.771 202.438L154.653 200.275L144.391 194.35L142.639 196.588L152.771 202.438ZM143.178 207.65L144.914 205.402L134.781 199.552L132.916 201.725L143.178 207.65Z" fill="#D4D5D7"/>
</g>
</g>
</g>
<defs>
<clipPath id="clip0_60_32">
<rect width="249" height="280" fill="white"/>
</clipPath>
</defs>
</svg>
